STARTFONT 2.1
FONT -Adobe-Palatino-Bold-I-Normal--17-120-100-100-P-90-ISO8859-1
SIZE 12 100 100
FONTBOUNDINGBOX 20 17 -3 -4

STARTPROPERTIES 26
_DEC_DEVICE_FONTNAMES "PS=Palatino-BoldItalic"
FONTNAME_REGISTRY ""
FAMILY_NAME "Palatino"
FOUNDRY "Adobe"
WEIGHT_NAME "Bold"
SLANT "I"
SETWIDTH_NAME "Normal"
ADD_STYLE_NAME ""
PIXEL_SIZE 17
POINT_SIZE 120
RESOLUTION_X 100
RESOLUTION_Y 100
SPACING "P"
AVERAGE_WIDTH 90
CHARSET_REGISTRY "ISO8859"
CHARSET_ENCODING "1"
CHARSET_COLLECTIONS "ASCII ISO8859-1 ADOBE-STANDARD"
FULL_NAME "Palatino Bold Italic"
COPYRIGHT "Copyright (c) 1991 Adobe Systems, Inc."
CAP_HEIGHT 12
X_HEIGHT 8
WEIGHT 10
QUAD_WIDTH 10
DEFAULT_CHAR 0
FONT_DESCENT 4
FONT_ASCENT 13
ENDPROPERTIES

CHARS 190

STARTCHAR space
ENCODING 32
SWIDTH 250 0
DWIDTH 4 0
BBX 1 1 0 0
BITMAP
00
ENDCHAR

STARTCHAR exclam
ENCODING 33
SWIDTH 333 0
DWIDTH 6 0
BBX 4 12 1 0
BITMAP
30
30
30
20
60
60
40
40
40
00
C0
C0
ENDCHAR

STARTCHAR quotedbl
ENCODING 34
SWIDTH 500 0
DWIDTH 8 0
BBX 7 5 1 7
BITMAP
44
EE
CC
88
88
ENDCHAR

STARTCHAR numbersign
ENCODING 35
SWIDTH 500 0
DWIDTH 8 0
BBX 8 12 0 0
BITMAP
12
12
12
12
FF
24
24
FF
48
48
48
48
ENDCHAR

STARTCHAR dollar
ENCODING 36
SWIDTH 500 0
DWIDTH 8 0
BBX 8 15 -1 -2
BITMAP
04
04
1F
25
65
68
78
3E
0F
13
93
96
F8
20
20
ENDCHAR

STARTCHAR percent
ENCODING 37
SWIDTH 889 0
DWIDTH 14 0
BBX 12 11 1 0
BITMAP
3040
6F80
C900
C900
D200
6460
04D0
0990
1190
11A0
20C0
ENDCHAR

STARTCHAR ampersand
ENCODING 38
SWIDTH 833 0
DWIDTH 14 0
BBX 13 12 1 0
BITMAP
0F00
1900
3100
3010
1808
3C18
61F0
C240
C260
C040
61C0
3F00
ENDCHAR

STARTCHAR quoteright
ENCODING 39
SWIDTH 278 0
DWIDTH 5 0
BBX 4 5 1 7
BITMAP
30
30
60
40
80
ENDCHAR

STARTCHAR parenleft
ENCODING 40
SWIDTH 333 0
DWIDTH 6 0
BBX 5 14 1 -2
BITMAP
08
10
30
20
60
40
C0
C0
C0
C0
C0
40
60
20
ENDCHAR

STARTCHAR parenright
ENCODING 41
SWIDTH 333 0
DWIDTH 6 0
BBX 5 14 0 -2
BITMAP
20
30
10
18
18
18
18
18
10
30
20
60
40
80
ENDCHAR

STARTCHAR asterisk
ENCODING 42
SWIDTH 444 0
DWIDTH 7 0
BBX 7 6 0 6
BITMAP
10
54
FE
38
6C
28
ENDCHAR

STARTCHAR plus
ENCODING 43
SWIDTH 606 0
DWIDTH 10 0
BBX 9 9 1 0
BITMAP
0800
0800
0800
0800
FF80
0800
0800
0800
0800
ENDCHAR

STARTCHAR comma
ENCODING 44
SWIDTH 250 0
DWIDTH 4 0
BBX 4 5 -2 -3
BITMAP
30
30
60
40
80
ENDCHAR

STARTCHAR minus
ENCODING 45
SWIDTH 606 0
DWIDTH 10 0
BBX 8 1 1 4
BITMAP
FF
ENDCHAR

STARTCHAR period
ENCODING 46
SWIDTH 250 0
DWIDTH 4 0
BBX 2 2 0 0
BITMAP
C0
C0
ENDCHAR

STARTCHAR slash
ENCODING 47
SWIDTH 315 0
DWIDTH 5 0
BBX 5 12 0 0
BITMAP
08
08
10
10
10
20
20
40
40
40
80
80
ENDCHAR

STARTCHAR zero
ENCODING 48
SWIDTH 500 0
DWIDTH 8 0
BBX 8 12 0 0
BITMAP
0E
33
33
63
63
63
C6
C6
C6
CC
CC
70
ENDCHAR

STARTCHAR one
ENCODING 49
SWIDTH 500 0
DWIDTH 8 0
BBX 7 12 0 0
BITMAP
06
1C
6C
0C
18
18
18
18
30
30
30
FC
ENDCHAR

STARTCHAR two
ENCODING 50
SWIDTH 500 0
DWIDTH 8 0
BBX 8 12 -1 0
BITMAP
1E
27
43
03
03
06
0C
18
10
20
7E
FE
ENDCHAR

STARTCHAR three
ENCODING 51
SWIDTH 500 0
DWIDTH 8 0
BBX 8 12 -1 0
BITMAP
0E
17
23
03
06
1E
07
03
03
86
46
78
ENDCHAR

STARTCHAR four
ENCODING 52
SWIDTH 500 0
DWIDTH 8 0
BBX 7 12 0 0
BITMAP
06
0E
16
16
2C
4C
4C
8C
FE
18
18
7E
ENDCHAR

STARTCHAR five
ENCODING 53
SWIDTH 500 0
DWIDTH 8 0
BBX 8 12 0 0
BITMAP
3F
3F
20
40
5C
6E
46
06
06
8C
4C
70
ENDCHAR

STARTCHAR six
ENCODING 54
SWIDTH 500 0
DWIDTH 8 0
BBX 8 12 0 0
BITMAP
07
19
30
60
60
FC
E6
C6
C6
C4
CC
70
ENDCHAR

STARTCHAR seven
ENCODING 55
SWIDTH 500 0
DWIDTH 8 0
BBX 8 12 1 0
BITMAP
FF
FE
02
04
08
18
10
30
60
60
C0
C0
ENDCHAR

STARTCHAR eight
ENCODING 56
SWIDTH 500 0
DWIDTH 8 0
BBX 7 12 0 0
BITMAP
1C
22
62
62
74
38
7C
CE
86
86
CC
70
ENDCHAR

STARTCHAR nine
ENCODING 57
SWIDTH 500 0
DWIDTH 8 0
BBX 8 12 0 0
BITMAP
0E
33
23
63
63
67
3F
06
06
0C
98
E0
ENDCHAR

STARTCHAR colon
ENCODING 58
SWIDTH 250 0
DWIDTH 4 0
BBX 3 7 0 0
BITMAP
60
60
00
00
00
C0
C0
ENDCHAR

STARTCHAR semicolon
ENCODING 59
SWIDTH 250 0
DWIDTH 4 0
BBX 5 10 -2 -3
BITMAP
18
18
00
00
00
30
30
60
40
80
ENDCHAR

STARTCHAR less
ENCODING 60
SWIDTH 606 0
DWIDTH 10 0
BBX 8 9 1 0
BITMAP
01
07
1C
70
C0
70
1C
07
01
ENDCHAR

STARTCHAR equal
ENCODING 61
SWIDTH 606 0
DWIDTH 10 0
BBX 8 4 1 2
BITMAP
FF
00
00
FF
ENDCHAR

STARTCHAR greater
ENCODING 62
SWIDTH 606 0
DWIDTH 10 0
BBX 8 9 1 0
BITMAP
80
E0
38
0E
03
0E
38
E0
80
ENDCHAR

STARTCHAR question
ENCODING 63
SWIDTH 444 0
DWIDTH 7 0
BBX 6 12 1 0
BITMAP
78
4C
8C
0C
18
30
60
40
40
00
C0
C0
ENDCHAR

STARTCHAR at
ENCODING 64
SWIDTH 833 0
DWIDTH 14 0
BBX 11 12 1 0
BITMAP
0F00
38C0
6040
4DA0
DBA0
9320
B340
B640
B780
5B20
60C0
1F00
ENDCHAR

STARTCHAR A
ENCODING 65
SWIDTH 722 0
DWIDTH 12 0
BBX 12 12 -1 0
BITMAP
0180
0180
0380
0380
04C0
08C0
08C0
1FC0
20E0
2060
4060
F1F0
ENDCHAR

STARTCHAR B
ENCODING 66
SWIDTH 667 0
DWIDTH 11 0
BBX 10 12 0 0
BITMAP
3F80
18C0
18C0
18C0
3180
3F00
3180
30C0
60C0
60C0
6180
FF00
ENDCHAR

STARTCHAR C
ENCODING 67
SWIDTH 685 0
DWIDTH 11 0
BBX 10 12 1 0
BITMAP
0FC0
38C0
7080
6080
E000
C000
C000
C000
C000
C000
6180
3E00
ENDCHAR

STARTCHAR D
ENCODING 68
SWIDTH 778 0
DWIDTH 13 0
BBX 12 12 0 0
BITMAP
3FC0
1860
1830
1830
3030
3030
3030
3070
6060
60E0
61C0
FF00
ENDCHAR

STARTCHAR E
ENCODING 69
SWIDTH 611 0
DWIDTH 10 0
BBX 10 12 0 0
BITMAP
3FC0
1840
1840
1800
3000
3000
3F00
3000
6000
6080
6100
FF00
ENDCHAR

STARTCHAR F
ENCODING 70
SWIDTH 556 0
DWIDTH 9 0
BBX 10 12 0 0
BITMAP
3FC0
1840
1840
1800
3000
3000
3F00
3000
6000
6000
6000
F000
ENDCHAR

STARTCHAR G
ENCODING 71
SWIDTH 778 0
DWIDTH 13 0
BBX 11 12 1 0
BITMAP
0FC0
38C0
7080
6080
E000
C000
C000
C3E0
C180
C180
6380
3E00
ENDCHAR

STARTCHAR H
ENCODING 72
SWIDTH 778 0
DWIDTH 13 0
BBX 13 12 0 0
BITMAP
3C78
1830
1830
1830
3060
3FE0
3060
3060
60C0
60C0
60C0
F1E0
ENDCHAR

STARTCHAR I
ENCODING 73
SWIDTH 389 0
DWIDTH 6 0
BBX 6 12 0 0
BITMAP
3C
18
18
18
30
30
30
30
60
60
60
F0
ENDCHAR

STARTCHAR J
ENCODING 74
SWIDTH 389 0
DWIDTH 6 0
BBX 8 16 -2 -4
BITMAP
0F
06
06
06
0C
0C
0C
0C
0C
18
18
18
18
30
70
C0
ENDCHAR

STARTCHAR K
ENCODING 75
SWIDTH 722 0
DWIDTH 12 0
BBX 12 12 0 0
BITMAP
3C70
1840
1880
1900
3200
3400
3E00
3600
6300
6380
6180
F1E0
ENDCHAR

STARTCHAR L
ENCODING 76
SWIDTH 611 0
DWIDTH 10 0
BBX 9 12 0 0
BITMAP
3C00
1800
1800
1800
3000
3000
3000
3000
6000
6080
6100
FF00
ENDCHAR

STARTCHAR M
ENCODING 77
SWIDTH 944 0
DWIDTH 16 0
BBX 16 12 0 0
BITMAP
3807
180E
180E
1C1E
3C2C
2C2C
2E4C
268C
4718
4718
4218
E23C
ENDCHAR

STARTCHAR N
ENCODING 78
SWIDTH 778 0
DWIDTH 13 0
BBX 13 12 0 0
BITMAP
3838
1C10
1C10
1630
3620
2320
2320
21A0
61C0
40C0
40C0
E040
ENDCHAR

STARTCHAR O
ENCODING 79
SWIDTH 833 0
DWIDTH 13 0
BBX 11 12 1 0
BITMAP
0F80
38C0
7060
6060
E060
C060
C060
C0E0
C0C0
C1C0
6380
3E00
ENDCHAR

STARTCHAR P
ENCODING 80
SWIDTH 667 0
DWIDTH 11 0
BBX 11 12 0 0
BITMAP
3FC0
18E0
1860
1860
30C0
31C0
3700
3000
6000
6000
6000
F000
ENDCHAR

STARTCHAR Q
ENCODING 81
SWIDTH 833 0
DWIDTH 13 0
BBX 11 15 1 -3
BITMAP
0F80
38C0
7060
6060
E060
C060
C060
C0E0
C0C0
C1C0
6380
3E00
3C20
4F60
03C0
ENDCHAR

STARTCHAR R
ENCODING 82
SWIDTH 722 0
DWIDTH 12 0
BBX 10 12 0 0
BITMAP
3F80
19C0
18C0
18C0
3180
3300
3600
3300
6300
6180
6180
F1C0
ENDCHAR

STARTCHAR S
ENCODING 83
SWIDTH 556 0
DWIDTH 9 0
BBX 8 12 0 0
BITMAP
1F
31
61
60
70
7C
1F
07
03
83
86
FC
ENDCHAR

STARTCHAR T
ENCODING 84
SWIDTH 611 0
DWIDTH 10 0
BBX 11 12 0 0
BITMAP
7FE0
4620
8620
0600
0C00
0C00
0C00
0C00
1800
1800
1800
3C00
ENDCHAR

STARTCHAR U
ENCODING 85
SWIDTH 778 0
DWIDTH 13 0
BBX 12 12 1 0
BITMAP
70F0
3060
3060
6060
60C0
60C0
60C0
C180
C180
C380
E580
79C0
ENDCHAR

STARTCHAR V
ENCODING 86
SWIDTH 667 0
DWIDTH 11 0
BBX 12 12 1 0
BITMAP
F0F0
6060
6040
7080
3080
3100
3100
3A00
1C00
1C00
1800
1800
ENDCHAR

STARTCHAR W
ENCODING 87
SWIDTH 1000 0
DWIDTH 17 0
BBX 15 12 2 0
BITMAP
F18E
6184
6384
63C8
65C8
64C8
68D0
68D0
70F0
7060
6060
6060
ENDCHAR

STARTCHAR X
ENCODING 88
SWIDTH 722 0
DWIDTH 12 0
BBX 12 12 0 0
BITMAP
3C70
1820
1C40
0C80
0F00
0600
0700
0B00
1380
2180
41C0
E3E0
ENDCHAR

STARTCHAR Y
ENCODING 89
SWIDTH 611 0
DWIDTH 10 0
BBX 10 12 0 0
BITMAP
6040
F0C0
3100
3100
1A00
1A00
1C00
0C00
1C00
1800
1800
3C00
ENDCHAR

STARTCHAR Z
ENCODING 90
SWIDTH 667 0
DWIDTH 11 0
BBX 11 12 0 0
BITMAP
3FE0
20C0
4180
0380
0300
0600
0C00
1C00
3800
3040
6080
FF80
ENDCHAR

STARTCHAR bracketleft
ENCODING 91
SWIDTH 333 0
DWIDTH 6 0
BBX 6 14 1 -2
BITMAP
3C
30
30
30
60
60
60
60
60
60
C0
C0
C0
F0
ENDCHAR

STARTCHAR backslash
ENCODING 92
SWIDTH 606 0
DWIDTH 10 0
BBX 8 12 1 0
BITMAP
C0
40
60
20
30
10
08
0C
04
06
02
03
ENDCHAR

STARTCHAR bracketright
ENCODING 93
SWIDTH 333 0
DWIDTH 6 0
BBX 6 14 -1 -2
BITMAP
3C
0C
0C
0C
18
18
18
18
18
18
30
30
30
F0
ENDCHAR

STARTCHAR asciicircum
ENCODING 94
SWIDTH 606 0
DWIDTH 10 0
BBX 8 7 1 5
BITMAP
18
18
3C
24
66
42
C3
ENDCHAR

STARTCHAR underscore
ENCODING 95
SWIDTH 500 0
DWIDTH 8 0
BBX 8 1 0 -3
BITMAP
FF
ENDCHAR

STARTCHAR quoteleft
ENCODING 96
SWIDTH 278 0
DWIDTH 5 0
BBX 4 5 1 7
BITMAP
10
20
60
C0
C0
ENDCHAR

STARTCHAR a
ENCODING 97
SWIDTH 556 0
DWIDTH 9 0
BBX 8 8 1 0
BITMAP
3E
66
46
CC
CC
DD
EE
CC
ENDCHAR

STARTCHAR b
ENCODING 98
SWIDTH 537 0
DWIDTH 9 0
BBX 7 12 1 0
BITMAP
30
F0
30
60
6E
76
66
C6
C6
CC
CC
70
ENDCHAR

STARTCHAR c
ENCODING 99
SWIDTH 444 0
DWIDTH 7 0
BBX 7 8 0 0
BITMAP
1E
66
62
C0
C0
C0
CC
70
ENDCHAR

STARTCHAR d
ENCODING 100
SWIDTH 556 0
DWIDTH 9 0
BBX 8 12 1 0
BITMAP
03
0F
03
06
3E
66
46
CC
CC
DD
EE
CC
ENDCHAR

STARTCHAR e
ENCODING 101
SWIDTH 444 0
DWIDTH 8 0
BBX 7 8 1 0
BITMAP
1C
66
66
CC
F0
C0
CC
70
ENDCHAR

STARTCHAR f
ENCODING 102
SWIDTH 333 0
DWIDTH 5 0
BBX 8 16 -1 -4
BITMAP
07
0D
18
18
7E
18
18
18
30
30
30
30
30
30
A0
C0
ENDCHAR

STARTCHAR g
ENCODING 103
SWIDTH 500 0
DWIDTH 8 0
BBX 10 12 -1 -4
BITMAP
0FC0
1300
3300
3300
3200
1C00
1800
1E00
6700
C300
C200
7C00
ENDCHAR

STARTCHAR h
ENCODING 104
SWIDTH 556 0
DWIDTH 9 0
BBX 8 12 1 0
BITMAP
30
F0
30
60
66
6E
76
66
CC
CD
CE
CC
ENDCHAR

STARTCHAR i
ENCODING 105
SWIDTH 333 0
DWIDTH 5 0
BBX 5 12 0 0
BITMAP
18
18
00
00
30
70
B0
30
60
68
70
60
ENDCHAR

STARTCHAR j
ENCODING 106
SWIDTH 333 0
DWIDTH 5 0
BBX 7 16 -2 -4
BITMAP
06
06
00
00
0C
1C
2C
0C
18
18
18
30
30
30
A0
C0
ENDCHAR

STARTCHAR k
ENCODING 107
SWIDTH 556 0
DWIDTH 9 0
BBX 8 12 1 0
BITMAP
30
F0
30
60
63
65
68
78
D8
DC
CD
CE
ENDCHAR

STARTCHAR l
ENCODING 108
SWIDTH 333 0
DWIDTH 5 0
BBX 4 12 1 0
BITMAP
30
F0
30
60
60
60
60
C0
C0
D0
E0
C0
ENDCHAR

STARTCHAR m
ENCODING 109
SWIDTH 833 0
DWIDTH 13 0
BBX 13 8 0 0
BITMAP
3330
7770
BBB0
3330
6660
6668
6670
6660
ENDCHAR

STARTCHAR n
ENCODING 110
SWIDTH 556 0
DWIDTH 9 0
BBX 9 8 0 0
BITMAP
3300
7700
BB00
3300
6600
6680
6700
6600
ENDCHAR

STARTCHAR o
ENCODING 111
SWIDTH 556 0
DWIDTH 9 0
BBX 7 8 1 0
BITMAP
1C
66
66
C6
C6
CC
CC
70
ENDCHAR

STARTCHAR p
ENCODING 112
SWIDTH 556 0
DWIDTH 9 0
BBX 9 12 -1 -4
BITMAP
1B80
7D80
1980
3180
3180
3300
7700
6C00
6000
C000
C000
C000
ENDCHAR

STARTCHAR q
ENCODING 113
SWIDTH 537 0
DWIDTH 9 0
BBX 7 12 1 -4
BITMAP
3E
66
46
CC
CC
DC
E8
D8
18
30
30
30
ENDCHAR

STARTCHAR r
ENCODING 114
SWIDTH 389 0
DWIDTH 7 0
BBX 7 8 0 0
BITMAP
36
76
B8
30
30
60
60
60
ENDCHAR

STARTCHAR s
ENCODING 115
SWIDTH 444 0
DWIDTH 7 0
BBX 6 8 0 0
BITMAP
3C
64
E0
78
3C
8C
98
F0
ENDCHAR

STARTCHAR t
ENCODING 116
SWIDTH 389 0
DWIDTH 6 0
BBX 7 11 0 0
BITMAP
18
18
30
FE
30
30
60
60
68
70
60
ENDCHAR

STARTCHAR u
ENCODING 117
SWIDTH 556 0
DWIDTH 9 0
BBX 9 8 0 0
BITMAP
3300
7300
B300
2600
6600
6E80
7700
6600
ENDCHAR

STARTCHAR v
ENCODING 118
SWIDTH 556 0
DWIDTH 9 0
BBX 8 8 0 0
BITMAP
7B
B3
31
63
62
66
64
38
ENDCHAR

STARTCHAR w
ENCODING 119
SWIDTH 833 0
DWIDTH 13 0
BBX 13 8 0 0
BITMAP
7998
B198
3188
6318
6310
6730
6720
39C0
ENDCHAR

STARTCHAR x
ENCODING 120
SWIDTH 500 0
DWIDTH 8 0
BBX 9 8 0 0
BITMAP
3180
7A80
1C00
0C00
1800
1C00
AD00
C600
ENDCHAR

STARTCHAR y
ENCODING 121
SWIDTH 556 0
DWIDTH 9 0
BBX 9 12 0 -4
BITMAP
3180
7180
B300
3300
3300
3600
3E00
3600
0400
4C00
C800
7000
ENDCHAR

STARTCHAR z
ENCODING 122
SWIDTH 500 0
DWIDTH 8 0
BBX 8 8 0 0
BITMAP
39
3F
46
0C
18
31
7E
CE
ENDCHAR

STARTCHAR braceleft
ENCODING 123
SWIDTH 333 0
DWIDTH 6 0
BBX 6 14 0 -2
BITMAP
1C
30
30
30
30
60
C0
60
60
60
C0
C0
C0
60
ENDCHAR

STARTCHAR bar
ENCODING 124
SWIDTH 606 0
DWIDTH 10 0
BBX 1 12 5 0
BITMAP
80
80
80
80
80
80
80
80
80
80
80
80
ENDCHAR

STARTCHAR braceright
ENCODING 125
SWIDTH 333 0
DWIDTH 6 0
BBX 6 14 -1 -2
BITMAP
18
0C
0C
0C
18
18
0C
18
30
30
30
30
30
E0
ENDCHAR

STARTCHAR asciitilde
ENCODING 126
SWIDTH 606 0
DWIDTH 10 0
BBX 8 3 1 3
BITMAP
71
FF
8E
ENDCHAR

STARTCHAR exclamdown
ENCODING 161
SWIDTH 333 0
DWIDTH 6 0
BBX 4 12 0 -4
BITMAP
30
30
00
20
20
20
60
60
40
C0
C0
C0
ENDCHAR

STARTCHAR cent
ENCODING 162
SWIDTH 500 0
DWIDTH 8 0
BBX 7 12 0 -2
BITMAP
04
04
1E
6E
6A
D0
D0
E0
EC
70
40
40
ENDCHAR

STARTCHAR sterling
ENCODING 163
SWIDTH 500 0
DWIDTH 9 0
BBX 9 12 0 0
BITMAP
0380
0C80
1880
1800
1800
1800
7E00
3000
3000
2080
7F00
C700
ENDCHAR

STARTCHAR currency
ENCODING 164
SWIDTH 500 0
DWIDTH 8 0
BBX 7 7 1 2
BITMAP
BA
44
82
82
82
44
BA
ENDCHAR

STARTCHAR yen
ENCODING 165
SWIDTH 500 0
DWIDTH 8 0
BBX 10 12 0 0
BITMAP
40C0
E180
6200
3200
3400
3400
7F00
1800
FE00
3000
3000
7C00
ENDCHAR

STARTCHAR brokenbar
ENCODING 166
SWIDTH 606 0
DWIDTH 10 0
BBX 1 12 5 0
BITMAP
80
80
80
80
80
00
00
80
80
80
80
80
ENDCHAR

STARTCHAR section
ENCODING 167
SWIDTH 556 0
DWIDTH 9 0
BBX 8 15 0 -3
BITMAP
0F
11
21
30
38
4E
46
62
72
1C
0C
04
84
88
F0
ENDCHAR

STARTCHAR dieresis
ENCODING 168
SWIDTH 333 0
DWIDTH 6 0
BBX 6 2 1 9
BITMAP
CC
CC
ENDCHAR

STARTCHAR copyright
ENCODING 169
SWIDTH 747 0
DWIDTH 13 0
BBX 12 12 0 0
BITMAP
0F00
39C0
6060
4F20
D930
9010
9010
D930
4E20
6060
39C0
0F00
ENDCHAR

STARTCHAR ordfeminine
ENCODING 170
SWIDTH 333 0
DWIDTH 6 0
BBX 5 7 1 5
BITMAP
38
48
98
B0
D8
00
F8
ENDCHAR

STARTCHAR guillemotleft
ENCODING 171
SWIDTH 500 0
DWIDTH 8 0
BBX 7 7 1 1
BITMAP
12
24
6C
D8
6C
24
12
ENDCHAR

STARTCHAR logicalnot
ENCODING 172
SWIDTH 606 0
DWIDTH 10 0
BBX 8 5 1 1
BITMAP
FF
01
01
01
01
ENDCHAR

STARTCHAR hyphen
ENCODING 173
SWIDTH 389 0
DWIDTH 6 0
BBX 5 2 1 4
BITMAP
F8
F8
ENDCHAR

STARTCHAR registered
ENCODING 174
SWIDTH 747 0
DWIDTH 13 0
BBX 12 12 0 0
BITMAP
0F00
39C0
6060
5E20
C930
8910
8E10
C930
5DA0
6060
39C0
0F00
ENDCHAR

STARTCHAR macron
ENCODING 175
SWIDTH 333 0
DWIDTH 6 0
BBX 5 1 2 9
BITMAP
F8
ENDCHAR

STARTCHAR degree
ENCODING 176
SWIDTH 400 0
DWIDTH 7 0
BBX 5 5 2 7
BITMAP
70
D8
88
D8
70
ENDCHAR

STARTCHAR plusminus
ENCODING 177
SWIDTH 606 0
DWIDTH 10 0
BBX 9 9 1 0
BITMAP
0800
0800
0800
FF80
0800
0800
0800
0000
FF80
ENDCHAR

STARTCHAR twosuperior
ENCODING 178
SWIDTH 300 0
DWIDTH 5 0
BBX 6 7 0 5
BITMAP
38
4C
0C
18
30
40
F8
ENDCHAR

STARTCHAR threesuperior
ENCODING 179
SWIDTH 300 0
DWIDTH 5 0
BBX 5 7 0 5
BITMAP
38
48
18
30
18
98
70
ENDCHAR

STARTCHAR acute
ENCODING 180
SWIDTH 333 0
DWIDTH 6 0
BBX 4 3 3 9
BITMAP
30
60
C0
ENDCHAR

STARTCHAR mu
ENCODING 181
SWIDTH 556 0
DWIDTH 9 0
BBX 9 12 0 -4
BITMAP
3300
7300
B300
2600
6600
6E80
7700
6600
6000
C000
C000
C000
ENDCHAR

STARTCHAR paragraph
ENCODING 182
SWIDTH 556 0
DWIDTH 9 0
BBX 10 16 0 -4
BITMAP
7FC0
E580
C500
CD00
C900
CB00
7A00
3200
1600
1400
3400
2400
2C00
2800
2800
FE00
ENDCHAR

STARTCHAR periodcentered
ENCODING 183
SWIDTH 250 0
DWIDTH 4 0
BBX 2 2 1 4
BITMAP
C0
C0
ENDCHAR

STARTCHAR cedilla
ENCODING 184
SWIDTH 333 0
DWIDTH 5 0
BBX 4 4 0 -3
BITMAP
20
60
30
E0
ENDCHAR

STARTCHAR onesuperior
ENCODING 185
SWIDTH 300 0
DWIDTH 5 0
BBX 4 7 1 5
BITMAP
10
F0
20
20
60
40
E0
ENDCHAR

STARTCHAR ordmasculine
ENCODING 186
SWIDTH 333 0
DWIDTH 6 0
BBX 5 7 1 5
BITMAP
38
48
88
90
E0
00
F0
ENDCHAR

STARTCHAR guillemotright
ENCODING 187
SWIDTH 500 0
DWIDTH 8 0
BBX 7 7 1 1
BITMAP
90
48
6C
36
6C
48
90
ENDCHAR

STARTCHAR onequarter
ENCODING 188
SWIDTH 750 0
DWIDTH 13 0
BBX 10 12 1 0
BITMAP
1080
F080
2100
2200
6200
44C0
E940
1280
1480
27C0
4100
4380
ENDCHAR

STARTCHAR onehalf
ENCODING 189
SWIDTH 750 0
DWIDTH 13 0
BBX 11 12 1 0
BITMAP
1080
F080
2100
2200
6200
45C0
EA60
1060
10C0
2180
4200
47C0
ENDCHAR

STARTCHAR threequarters
ENCODING 190
SWIDTH 750 0
DWIDTH 13 0
BBX 12 12 0 0
BITMAP
3820
4820
1840
3080
1880
9930
7250
04A0
0520
09F0
1040
10E0
ENDCHAR

STARTCHAR questiondown
ENCODING 191
SWIDTH 444 0
DWIDTH 7 0
BBX 6 12 -1 -4
BITMAP
0C
0C
00
08
08
18
30
60
C0
C4
C8
78
ENDCHAR

STARTCHAR Agrave
ENCODING 192
SWIDTH 722 0
DWIDTH 12 0
BBX 12 13 -1 0
BITMAP
0600
0300
0180
0000
0180
0180
03C0
04C0
08C0
1FE0
2060
4060
F1F0
ENDCHAR

STARTCHAR Aacute
ENCODING 193
SWIDTH 722 0
DWIDTH 12 0
BBX 12 13 -1 0
BITMAP
0060
00C0
0180
0000
0180
0180
03C0
04C0
08C0
1FE0
2060
4060
F1F0
ENDCHAR

STARTCHAR Acircumflex
ENCODING 194
SWIDTH 722 0
DWIDTH 12 0
BBX 12 13 -1 0
BITMAP
0180
03C0
0660
0000
0180
0180
03C0
04C0
08C0
1FE0
2060
4060
F1F0
ENDCHAR

STARTCHAR Atilde
ENCODING 195
SWIDTH 722 0
DWIDTH 12 0
BBX 12 12 -1 0
BITMAP
03A0
05C0
0000
0180
0180
03C0
04C0
08C0
1FE0
2060
4060
F1F0
ENDCHAR

STARTCHAR Adieresis
ENCODING 196
SWIDTH 722 0
DWIDTH 12 0
BBX 12 12 -1 0
BITMAP
0660
0660
0000
0180
0180
03C0
04C0
08C0
1FE0
2060
4060
F1F0
ENDCHAR

STARTCHAR Aring
ENCODING 197
SWIDTH 722 0
DWIDTH 12 0
BBX 12 13 -1 0
BITMAP
0180
0240
0180
0000
0180
0180
03C0
04C0
08C0
1FE0
2060
4060
F1F0
ENDCHAR

STARTCHAR AE
ENCODING 198
SWIDTH 944 0
DWIDTH 15 0
BBX 16 12 -1 0
BITMAP
03FF
0161
0261
0260
04C0
08C0
08FC
1FC0
2180
2182
4184
F3FC
ENDCHAR

STARTCHAR Ccedilla
ENCODING 199
SWIDTH 685 0
DWIDTH 11 0
BBX 10 15 1 -3
BITMAP
0FC0
38C0
7080
6080
E000
C000
C000
C000
C000
C000
6180
3E00
0C00
0600
1C00
ENDCHAR

STARTCHAR Egrave
ENCODING 200
SWIDTH 611 0
DWIDTH 10 0
BBX 10 13 0 0
BITMAP
1800
0C00
0600
0000
3FC0
1840
1840
3000
3F00
3000
6080
6100
FF00
ENDCHAR

STARTCHAR Eacute
ENCODING 201
SWIDTH 611 0
DWIDTH 10 0
BBX 10 13 0 0
BITMAP
0180
0300
0600
0000
3FC0
1840
1840
3000
3F00
3000
6080
6100
FF00
ENDCHAR

STARTCHAR Ecircumflex
ENCODING 202
SWIDTH 611 0
DWIDTH 10 0
BBX 10 13 0 0
BITMAP
0600
0F00
1980
0000
3FC0
1840
1840
3000
3F00
3000
6080
6100
FF00
ENDCHAR

STARTCHAR Edieresis
ENCODING 203
SWIDTH 611 0
DWIDTH 10 0
BBX 10 12 0 0
BITMAP
1980
1980
0000
3FC0
1840
1840
3000
3F00
3000
6080
6100
FF00
ENDCHAR

STARTCHAR Igrave
ENCODING 204
SWIDTH 389 0
DWIDTH 6 0
BBX 6 13 0 0
BITMAP
60
30
18
00
3C
18
18
30
30
30
60
60
F0
ENDCHAR

STARTCHAR Iacute
ENCODING 205
SWIDTH 389 0
DWIDTH 6 0
BBX 7 13 0 0
BITMAP
06
0C
18
00
3C
18
18
30
30
30
60
60
F0
ENDCHAR

STARTCHAR Icircumflex
ENCODING 206
SWIDTH 389 0
DWIDTH 6 0
BBX 7 13 0 0
BITMAP
18
3C
66
00
3C
18
18
30
30
30
60
60
F0
ENDCHAR

STARTCHAR Idieresis
ENCODING 207
SWIDTH 389 0
DWIDTH 6 0
BBX 7 12 0 0
BITMAP
66
66
00
3C
18
18
30
30
30
60
60
F0
ENDCHAR

STARTCHAR Eth
ENCODING 208
SWIDTH 778 0
DWIDTH 13 0
BBX 12 12 0 0
BITMAP
3FC0
1860
1830
1830
3030
3030
FC30
3070
6060
60E0
61C0
FF00
ENDCHAR

STARTCHAR Ntilde
ENCODING 209
SWIDTH 778 0
DWIDTH 13 0
BBX 13 12 0 0
BITMAP
03A0
05C0
0000
3838
1C10
1E30
3620
2320
23E0
61C0
40C0
E040
ENDCHAR

STARTCHAR Ograve
ENCODING 210
SWIDTH 833 0
DWIDTH 13 0
BBX 11 13 1 0
BITMAP
0C00
0600
0300
0000
0F80
38C0
6060
E060
C060
C0E0
C0C0
6380
3E00
ENDCHAR

STARTCHAR Oacute
ENCODING 211
SWIDTH 833 0
DWIDTH 13 0
BBX 11 13 1 0
BITMAP
0180
0300
0600
0000
0F80
38C0
6060
E060
C060
C0E0
C0C0
6380
3E00
ENDCHAR

STARTCHAR Ocircumflex
ENCODING 212
SWIDTH 833 0
DWIDTH 13 0
BBX 11 13 1 0
BITMAP
0600
0F00
1980
0000
0F80
38C0
6060
E060
C060
C0E0
C0C0
6380
3E00
ENDCHAR

STARTCHAR Otilde
ENCODING 213
SWIDTH 833 0
DWIDTH 13 0
BBX 11 12 1 0
BITMAP
0740
0B80
0000
0F80
38C0
6060
E060
C060
C0E0
C0C0
6380
3E00
ENDCHAR

STARTCHAR Odieresis
ENCODING 214
SWIDTH 833 0
DWIDTH 13 0
BBX 11 12 1 0
BITMAP
0CC0
0CC0
0000
0F80
38C0
6060
E060
C060
C0E0
C0C0
6380
3E00
ENDCHAR

STARTCHAR multiply
ENCODING 215
SWIDTH 606 0
DWIDTH 10 0
BBX 8 8 1 0
BITMAP
81
42
24
18
18
24
42
81
ENDCHAR

STARTCHAR Oslash
ENCODING 216
SWIDTH 833 0
DWIDTH 13 0
BBX 13 14 0 -1
BITMAP
0008
07D0
1C60
3870
30B0
7130
6230
6230
6470
6860
70E0
31C0
5F00
8000
ENDCHAR

STARTCHAR Ugrave
ENCODING 217
SWIDTH 778 0
DWIDTH 13 0
BBX 12 13 1 0
BITMAP
1800
0C00
0600
0000
70F0
3060
60C0
60C0
60C0
C180
C380
E580
79C0
ENDCHAR

STARTCHAR Uacute
ENCODING 218
SWIDTH 778 0
DWIDTH 13 0
BBX 12 13 1 0
BITMAP
0180
0300
0600
0000
70F0
3060
60C0
60C0
60C0
C180
C380
E580
79C0
ENDCHAR

STARTCHAR Ucircumflex
ENCODING 219
SWIDTH 778 0
DWIDTH 13 0
BBX 12 13 1 0
BITMAP
0600
0F00
1980
0000
70F0
3060
60C0
60C0
60C0
C180
C380
E580
79C0
ENDCHAR

STARTCHAR Udieresis
ENCODING 220
SWIDTH 778 0
DWIDTH 13 0
BBX 12 12 1 0
BITMAP
0CC0
0CC0
0000
70F0
3060
60C0
60C0
60C0
C180
C380
E580
79C0
ENDCHAR

STARTCHAR Yacute
ENCODING 221
SWIDTH 611 0
DWIDTH 10 0
BBX 10 13 0 0
BITMAP
0180
0300
0600
0000
6040
F0C0
3100
1A00
1A00
0C00
1C00
1800
3C00
ENDCHAR

STARTCHAR Thorn
ENCODING 222
SWIDTH 667 0
DWIDTH 11 0
BBX 10 12 0 0
BITMAP
3C00
1800
1800
3F80
31C0
30C0
30C0
3180
7F00
6000
6000
F000
ENDCHAR

STARTCHAR germandbls
ENCODING 223
SWIDTH 556 0
DWIDTH 9 0
BBX 10 16 -1 -4
BITMAP
0380
06C0
0440
0CC0
3D80
0D00
1980
19C0
18C0
1840
34C0
3780
3000
3000
A000
C000
ENDCHAR

STARTCHAR agrave
ENCODING 224
SWIDTH 556 0
DWIDTH 9 0
BBX 8 12 1 0
BITMAP
30
18
0C
00
3E
66
46
CC
CC
DD
EE
CC
ENDCHAR

STARTCHAR aacute
ENCODING 225
SWIDTH 556 0
DWIDTH 9 0
BBX 8 12 1 0
BITMAP
06
0C
18
00
3E
66
46
CC
CC
DD
EE
CC
ENDCHAR

STARTCHAR acircumflex
ENCODING 226
SWIDTH 556 0
DWIDTH 9 0
BBX 8 12 1 0
BITMAP
18
3C
66
00
3E
66
46
CC
CC
DD
EE
CC
ENDCHAR

STARTCHAR atilde
ENCODING 227
SWIDTH 556 0
DWIDTH 9 0
BBX 8 11 1 0
BITMAP
3A
5C
00
3E
66
46
CC
CC
DD
EE
CC
ENDCHAR

STARTCHAR adieresis
ENCODING 228
SWIDTH 556 0
DWIDTH 9 0
BBX 8 11 1 0
BITMAP
66
66
00
3E
66
46
CC
CC
DD
EE
CC
ENDCHAR

STARTCHAR aring
ENCODING 229
SWIDTH 556 0
DWIDTH 9 0
BBX 8 12 1 0
BITMAP
18
24
18
00
3E
66
46
CC
CC
DD
EE
CC
ENDCHAR

STARTCHAR ae
ENCODING 230
SWIDTH 738 0
DWIDTH 12 0
BBX 11 8 1 0
BITMAP
7DC0
4E60
0660
1CC0
6F00
CC00
CCC0
7700
ENDCHAR

STARTCHAR ccedilla
ENCODING 231
SWIDTH 444 0
DWIDTH 8 0
BBX 7 11 1 -3
BITMAP
1E
66
62
C0
C0
C0
CC
70
30
18
70
ENDCHAR

STARTCHAR egrave
ENCODING 232
SWIDTH 444 0
DWIDTH 8 0
BBX 7 12 1 0
BITMAP
60
30
18
00
1C
66
66
CC
F0
C0
CC
70
ENDCHAR

STARTCHAR eacute
ENCODING 233
SWIDTH 444 0
DWIDTH 8 0
BBX 7 12 1 0
BITMAP
06
0C
18
00
1C
66
66
CC
F0
C0
CC
70
ENDCHAR

STARTCHAR ecircumflex
ENCODING 234
SWIDTH 444 0
DWIDTH 8 0
BBX 7 12 1 0
BITMAP
18
3C
66
00
1C
66
66
CC
F0
C0
CC
70
ENDCHAR

STARTCHAR edieresis
ENCODING 235
SWIDTH 444 0
DWIDTH 8 0
BBX 7 11 1 0
BITMAP
66
66
00
1C
66
66
CC
F0
C0
CC
70
ENDCHAR

STARTCHAR igrave
ENCODING 236
SWIDTH 333 0
DWIDTH 5 0
BBX 5 12 0 0
BITMAP
C0
60
30
00
30
70
B0
30
60
68
70
60
ENDCHAR

STARTCHAR iacute
ENCODING 237
SWIDTH 333 0
DWIDTH 5 0
BBX 6 12 0 0
BITMAP
0C
18
30
00
30
70
B0
30
60
68
70
60
ENDCHAR

STARTCHAR icircumflex
ENCODING 238
SWIDTH 333 0
DWIDTH 5 0
BBX 6 12 0 0
BITMAP
30
78
CC
00
30
70
B0
30
60
68
70
60
ENDCHAR

STARTCHAR idieresis
ENCODING 239
SWIDTH 333 0
DWIDTH 5 0
BBX 6 11 0 0
BITMAP
CC
CC
00
30
70
B0
30
60
68
70
60
ENDCHAR

STARTCHAR eth
ENCODING 240
SWIDTH 556 0
DWIDTH 9 0
BBX 7 12 1 0
BITMAP
3A
4C
16
06
1E
66
66
C6
C6
CC
CC
70
ENDCHAR

STARTCHAR ntilde
ENCODING 241
SWIDTH 556 0
DWIDTH 9 0
BBX 9 11 0 0
BITMAP
1D00
2E00
0000
3300
7700
BB00
3300
6600
6680
6700
6600
ENDCHAR

STARTCHAR ograve
ENCODING 242
SWIDTH 556 0
DWIDTH 9 0
BBX 7 12 1 0
BITMAP
60
30
18
00
1C
66
66
C6
C6
CC
CC
70
ENDCHAR

STARTCHAR oacute
ENCODING 243
SWIDTH 556 0
DWIDTH 9 0
BBX 8 12 0 0
BITMAP
03
06
0C
00
1E
67
63
C3
C3
C6
E6
78
ENDCHAR

STARTCHAR ocircumflex
ENCODING 244
SWIDTH 556 0
DWIDTH 9 0
BBX 8 12 0 0
BITMAP
0C
1E
33
00
1E
67
63
C3
C3
C6
E6
78
ENDCHAR

STARTCHAR otilde
ENCODING 245
SWIDTH 556 0
DWIDTH 9 0
BBX 7 11 1 0
BITMAP
3A
5C
00
1C
66
66
C6
C6
CC
CC
70
ENDCHAR

STARTCHAR odieresis
ENCODING 246
SWIDTH 556 0
DWIDTH 9 0
BBX 8 11 1 0
BITMAP
33
33
00
1C
66
66
C6
C6
CC
CC
70
ENDCHAR

STARTCHAR divide
ENCODING 247
SWIDTH 606 0
DWIDTH 10 0
BBX 8 9 1 0
BITMAP
18
18
00
00
FF
00
00
18
18
ENDCHAR

STARTCHAR oslash
ENCODING 248
SWIDTH 556 0
DWIDTH 9 0
BBX 9 8 0 0
BITMAP
0E80
3300
3700
6B00
6B00
7600
6600
B800
ENDCHAR

STARTCHAR ugrave
ENCODING 249
SWIDTH 556 0
DWIDTH 9 0
BBX 9 12 0 0
BITMAP
3000
1800
0C00
0000
3300
7300
B300
2600
6600
6E80
7700
6600
ENDCHAR

STARTCHAR uacute
ENCODING 250
SWIDTH 556 0
DWIDTH 9 0
BBX 9 12 0 0
BITMAP
0300
0600
0C00
0000
3300
7300
B300
2600
6600
6E80
7700
6600
ENDCHAR

STARTCHAR ucircumflex
ENCODING 251
SWIDTH 556 0
DWIDTH 9 0
BBX 9 12 0 0
BITMAP
0C00
1E00
3300
0000
3300
7300
B300
2600
6600
6E80
7700
6600
ENDCHAR

STARTCHAR udieresis
ENCODING 252
SWIDTH 556 0
DWIDTH 9 0
BBX 9 11 0 0
BITMAP
3300
3300
0000
3300
7300
B300
2600
6600
6E80
7700
6600
ENDCHAR

STARTCHAR yacute
ENCODING 253
SWIDTH 556 0
DWIDTH 9 0
BBX 9 16 0 -4
BITMAP
0180
0300
0600
0000
3180
7180
B300
3300
3300
3600
3E00
3600
0400
4C00
C800
7000
ENDCHAR

STARTCHAR thorn
ENCODING 254
SWIDTH 556 0
DWIDTH 9 0
BBX 9 16 -1 -4
BITMAP
0C00
3C00
1800
1800
1B80
1D80
1980
3180
3180
3300
7700
6C00
6000
C000
C000
C000
ENDCHAR

STARTCHAR ydieresis
ENCODING 255
SWIDTH 556 0
DWIDTH 9 0
BBX 9 15 0 -4
BITMAP
3300
3300
0000
3180
7180
B300
3300
3300
3600
3E00
3600
0400
4C00
C800
7000
ENDCHAR
ENDFONT
